# Blender 4.3.2
# www.blender.org
mtllib porta.mtl
o Plane.005
v 0.435881 0.001129 0.059530
v -0.309215 0.001129 -0.059528
v -0.435881 0.001129 -0.059528
v 0.309215 0.001129 0.059530
v -0.435881 0.001129 0.059530
v 0.309215 0.001129 -0.059529
v -0.309215 0.001129 0.059530
v 0.435881 0.001129 -0.059528
v 0.083845 1.333303 0.059530
v -0.083845 1.333303 0.059530
v -0.279364 1.131556 -0.059528
v -0.310338 0.974685 -0.059528
v -0.342528 1.288289 0.059530
v -0.225363 1.399100 0.059530
v -0.434756 0.998614 -0.059528
v -0.401432 1.155027 -0.059528
v 0.434756 0.998614 0.059530
v 0.401432 1.155027 0.059530
v -0.251224 1.200037 -0.059528
v -0.135797 1.312496 -0.059528
v -0.135797 1.312496 0.059530
v -0.251224 1.200037 0.059530
v -0.342528 1.288289 -0.059528
v -0.225363 1.399100 -0.059528
v 0.279364 1.131556 0.059530
v 0.310338 0.974685 0.059530
v -0.083845 1.333303 -0.059528
v 0.083845 1.333303 -0.059528
v -0.434756 0.998614 0.059530
v -0.401432 1.155027 0.059530
v 0.083845 1.455780 -0.059528
v -0.083845 1.455780 -0.059528
v 0.225363 1.399100 0.059530
v 0.342528 1.288289 0.059530
v 0.251224 1.200037 -0.059528
v 0.135797 1.312496 -0.059528
v -0.279364 1.131556 0.059530
v -0.310338 0.974685 0.059530
v 0.342528 1.288289 -0.059528
v 0.225363 1.399100 -0.059528
v 0.135797 1.312496 0.059530
v 0.251224 1.200037 0.059530
v 0.279364 1.131556 -0.059528
v 0.310338 0.974685 -0.059528
v 0.401432 1.155027 -0.059528
v 0.434756 0.998614 -0.059528
v -0.083845 1.455780 0.059530
v 0.083845 1.455780 0.059530
vn 0.5777 -0.5770 -0.5773
vn 0.9953 -0.0967 -0.0000
vn 0.5777 -0.5770 0.5773
vn -0.5777 -0.5770 -0.5773
vn 0.5777 -0.5771 -0.5773
vn 0.5777 -0.5771 0.5773
vn -0.5777 -0.5770 0.5773
vn -0.5777 -0.5771 -0.5773
vn -0.0000 -0.0000 -1.0000
vn -0.9953 -0.0967 -0.0000
vn 0.9944 0.1053 -0.0000
vn -0.8169 0.5767 -0.0000
vn -0.9514 0.3080 -0.0000
vn -0.0000 -0.0000 1.0000
vn -0.5777 -0.5771 0.5773
vn -0.8286 -0.5598 -0.0000
vn -0.9576 -0.2883 -0.0000
vn -0.1893 0.9819 -0.0000
vn -0.5390 0.8423 -0.0000
vn 0.9576 -0.2883 -0.0000
vn 0.8286 -0.5598 -0.0000
vn 0.5390 0.8423 -0.0000
vn 0.1893 0.9819 -0.0000
vn 0.9514 0.3080 -0.0000
vn 0.8169 0.5767 -0.0000
vn 0.5452 -0.8383 -0.0000
vn 0.1893 -0.9819 -0.0000
vn -0.9944 0.1053 -0.0000
vn -0.1893 -0.9819 -0.0000
vn -0.5452 -0.8383 -0.0000
vt 0.179334 0.988844
vt 0.046913 0.988844
vt 0.046913 0.972650
vt 0.179334 0.972650
vt 0.554799 0.879985
vt 0.539034 0.879985
vt 0.539034 0.896179
vt 0.554799 0.896179
vt 0.380558 0.877734
vt 0.380558 0.861969
vt 0.244882 0.862109
vt 0.248137 0.877594
vt 0.217485 0.947487
vt 0.205481 0.958851
vt 0.223607 0.966182
vt 0.226800 0.950990
vt 0.972713 0.852576
vt 0.972713 0.984997
vt 0.988907 0.984997
vt 0.988907 0.852576
vt 0.946461 0.983696
vt 0.810785 0.983696
vt 0.810785 0.967502
vt 0.946461 0.967502
vt 0.579299 0.983696
vt 0.597425 0.983696
vt 0.597425 0.967502
vt 0.579299 0.967502
vt 0.408532 0.881449
vt 0.399218 0.884952
vt 0.387214 0.873588
vt 0.405340 0.866257
vt 0.562291 0.877734
vt 0.429870 0.877594
vt 0.426615 0.862109
vt 0.562291 0.861969
vt 0.972713 0.821924
vt 0.972713 0.831238
vt 0.988907 0.831238
vt 0.988907 0.821924
vt 0.158359 0.897598
vt 0.158359 0.879984
vt 0.174553 0.879984
vt 0.174553 0.897598
vt 0.025575 0.988844
vt 0.016261 0.988844
vt 0.016261 0.972650
vt 0.025575 0.972650
vt 0.248137 0.954845
vt 0.244882 0.970330
vt 0.380558 0.970470
vt 0.380558 0.954705
vt 0.199358 0.926655
vt 0.182699 0.926655
vt 0.190409 0.944269
vt 0.202188 0.933121
vt 0.158359 0.936082
vt 0.158359 0.918469
vt 0.174553 0.918469
vt 0.174553 0.936082
vt 0.399218 0.947487
vt 0.408532 0.950990
vt 0.405340 0.966182
vt 0.387214 0.958851
vt 0.429870 0.954845
vt 0.562291 0.954705
vt 0.562291 0.970470
vt 0.426615 0.970330
vt 0.789510 0.983696
vt 0.771384 0.983696
vt 0.771384 0.967502
vt 0.789510 0.967502
vt 0.383921 0.899318
vt 0.381091 0.905784
vt 0.364432 0.905784
vt 0.372141 0.888171
vt 0.202188 0.899318
vt 0.190409 0.888171
vt 0.182699 0.905784
vt 0.199358 0.905784
vt 0.381091 0.926655
vt 0.383921 0.933121
vt 0.372141 0.944269
vt 0.364432 0.926655
vt 0.982739 0.748712
vt 0.982739 0.755178
vt 0.998933 0.755178
vt 0.998933 0.748712
vt 0.618700 0.983696
vt 0.754376 0.983696
vt 0.754376 0.967502
vt 0.618700 0.967502
vt 0.226800 0.881449
vt 0.223607 0.866257
vt 0.205481 0.873588
vt 0.217485 0.884952
vt 0.539031 0.928892
vt 0.539031 0.944657
vt 0.555225 0.944657
vt 0.555225 0.928892
vt 0.982739 0.776049
vt 0.998933 0.776049
vt 0.756311 0.983696
vt 0.756311 0.967502
vt 0.000964 0.988844
vt 0.000964 0.972650
vt 0.564226 0.967502
vt 0.564226 0.983696
vt 0.988907 0.806627
vt 0.972713 0.806627
vt 0.982739 0.782515
vt 0.998933 0.782515
s 1
usemtl Material.001
f 2/1/1 12/2/2 38/3/2 7/4/3
f 6/5/4 8/6/5 1/7/6 4/8/7
f 2/9/1 3/10/8 15/11/9 12/12/9
f 35/13/9 39/14/9 45/15/9 43/16/9
f 44/17/10 6/18/4 4/19/7 26/20/10
f 8/21/5 46/22/11 17/23/11 1/24/6
f 23/25/12 16/26/13 30/27/13 13/28/12
f 37/29/14 22/30/14 13/31/14 30/32/14
f 7/33/3 38/34/14 29/35/14 5/36/15
f 35/37/16 43/38/17 25/39/17 42/40/16
f 32/41/18 24/42/19 14/43/19 47/44/18
f 11/45/20 19/46/21 22/47/21 37/48/20
f 44/49/9 46/50/9 8/51/5 6/52/4
f 28/53/9 31/54/9 40/55/9 36/56/9
f 40/57/22 31/58/23 48/59/23 33/60/22
f 42/61/14 25/62/14 18/63/14 34/64/14
f 26/65/14 4/66/7 1/67/6 17/68/14
f 45/69/24 39/70/25 34/71/25 18/72/24
f 21/73/14 10/74/14 47/75/14 14/76/14
f 20/77/9 24/78/9 32/79/9 27/80/9
f 9/81/14 41/82/14 33/83/14 48/84/14
f 20/85/26 27/86/27 10/87/27 21/88/26
f 15/89/28 3/90/8 5/91/15 29/92/28
f 11/93/9 16/94/9 23/95/9 19/96/9
f 3/97/8 2/98/1 7/99/3 5/100/15
f 28/101/29 9/102/29 10/87/27 27/86/27
f 34/71/25 39/70/25 40/103/22 33/104/22
f 16/94/9 11/93/9 12/12/9 15/11/9
f 11/45/20 37/48/20 38/3/2 12/2/2
f 18/63/14 25/62/14 26/65/14 17/68/14
f 20/105/26 21/106/26 22/47/21 19/46/21
f 24/78/9 20/77/9 19/96/9 23/95/9
f 33/83/14 41/82/14 42/61/14 34/64/14
f 44/17/10 26/20/10 25/39/17 43/38/17
f 48/59/23 31/58/23 32/41/18 47/44/18
f 31/54/9 28/53/9 27/80/9 32/79/9
f 47/75/14 10/74/14 9/81/14 48/84/14
f 14/107/19 24/108/19 23/25/12 13/28/12
f 39/14/9 35/13/9 36/56/9 40/55/9
f 13/31/14 22/30/14 21/73/14 14/76/14
f 35/37/16 42/40/16 41/109/30 36/110/30
f 15/89/28 29/92/28 30/27/13 16/26/13
f 46/50/9 44/49/9 43/16/9 45/15/9
f 29/35/14 38/34/14 37/29/14 30/32/14
f 17/23/11 46/22/11 45/69/24 18/72/24
f 28/101/29 36/111/30 41/112/30 9/102/29
