# Blender 4.3.2
# www.blender.org
mtllib hall_collisor.mtl
o Plane.001
v 0.233614 2.121288 2.182679
v 0.232400 1.057973 3.901298
v 0.232400 1.478558 3.901298
v 0.233614 2.541873 2.182679
v 1.238056 2.121288 2.182679
v 1.239205 1.057973 3.901298
v 1.239205 1.478558 3.901298
v 1.238056 2.541873 2.182679
v 1.152858 2.121288 2.182679
v 1.153964 1.057973 3.901339
v 1.153964 1.478558 3.901339
v 1.152858 2.541873 2.182679
v 0.316810 2.121288 2.182679
v 0.315641 1.057973 3.901335
v 0.315641 1.478558 3.901335
v 0.316810 2.541873 2.182679
v 3.068677 1.117752 2.181381
v -0.897511 1.117752 2.181381
v 3.068677 2.192203 2.181381
v -0.892292 5.887351 1.246470
v -0.897511 2.192203 2.181381
v 3.068677 2.192203 1.246471
v 3.068677 1.117752 1.246471
v -0.892292 2.192203 1.246470
v 3.068677 5.887351 1.246471
v 3.068677 1.014578 2.181381
v 3.068677 1.014578 1.246471
v -0.989344 2.192203 2.181381
v -0.989344 2.192203 1.246471
v 3.068676 1.117752 5.490523
v -0.897511 1.117752 5.490524
v 3.068676 1.014578 5.490523
v -0.783376 1.014578 5.490524
v -0.897510 2.192203 5.493592
v -0.989344 1.117752 5.490524
v -0.989344 1.014578 5.490524
v -0.989343 2.192203 5.493592
v 3.068676 2.192203 0.068209
v 3.068676 1.117752 0.068209
v 3.068676 1.014578 0.068209
v -0.892292 5.887351 0.068209
v 3.068676 5.887351 0.068209
v -0.989344 5.887351 1.246471
v -0.989344 5.887351 0.068209
v 3.061651 2.181685 2.181381
v 3.061651 2.181685 1.246471
v 3.003398 2.181685 1.246471
v 3.003397 2.181685 2.181381
v 3.061651 2.181685 2.124804
v 3.003397 2.181685 2.124804
v -0.975716 2.181685 2.181382
v -0.975716 2.181685 1.246471
v 0.312266 2.181685 2.181381
v -0.917463 2.181685 1.246471
v -0.917463 2.181685 2.181381
v 0.312266 2.181685 2.123128
v -0.975716 2.181685 2.124805
v -0.917463 2.181685 2.124804
v 1.227768 2.181685 2.181381
v 1.227768 2.181685 2.124805
v -0.975716 2.585062 2.124805
v -0.975716 2.585062 2.181382
v -0.917463 2.585062 2.124804
v -0.917463 2.585062 2.181381
v -0.917463 2.585062 1.246471
v -0.975716 2.585062 1.246471
v 0.312266 2.585062 2.181381
v 0.312266 2.585062 2.123128
v 3.061651 2.588539 2.124804
v 3.061651 2.588539 2.181381
v 3.003397 2.588539 2.124804
v 3.003397 2.588539 2.181381
v 3.003398 2.588539 1.246471
v 3.061651 2.588539 1.246471
v 1.227768 2.588539 2.124805
v 1.227768 2.588539 2.181381
v 1.204603 1.121092 3.810722
v 1.204147 1.636863 3.021752
v 1.203549 2.184407 2.182679
v 1.204076 1.121092 2.182679
v 0.267766 1.121092 3.810722
v 0.268247 1.636863 3.021752
v 0.268880 2.184407 2.182679
v 0.268323 1.121092 2.182679
vn 1.0000 -0.0000 -0.0007
vn -1.0000 -0.0000 -0.0007
vn -1.0000 -0.0000 0.0006
vn -0.0000 -0.0000 -1.0000
vn 0.0005 -0.0000 1.0000
vn 0.0001 0.8504 0.5261
vn -0.0001 -0.8504 -0.5261
vn 1.0000 -0.0000 0.0007
vn 0.0001 -0.8504 -0.5261
vn -0.0004 -0.0000 1.0000
vn -0.0001 0.8504 0.5261
vn 1.0000 -0.0000 -0.0000
vn -0.0000 1.0000 -0.0000
vn -0.0000 -0.0000 1.0000
vn -0.0000 -0.0029 1.0000
vn -0.0000 -1.0000 -0.0000
vn -0.0014 -0.0000 -1.0000
vn -1.0000 -0.0000 -0.0000
vn -1.0000 0.0005 -0.0004
vn 1.0000 0.0004 -0.0003
vn -0.0000 0.8375 0.5465
vn -1.0000 0.0004 -0.0003
vn 1.0000 0.0005 -0.0004
vn -0.0000 0.8370 0.5472
vt 0.748247 0.379495
vt 0.772114 0.418070
vt 0.554143 0.418072
vt 0.530276 0.379497
vt 0.493663 0.807707
vt 0.493661 0.589736
vt 0.455086 0.613603
vt 0.455087 0.831574
vt 0.466281 0.931582
vt 0.684255 0.931581
vt 0.660389 0.893005
vt 0.442414 0.893006
vt 0.503166 0.001503
vt 0.512355 0.001503
vt 0.512355 0.046866
vt 0.503166 0.046866
vt 0.857895 0.024184
vt 0.857895 0.014991
vt 0.812533 0.014991
vt 0.812533 0.024184
vt 0.715400 0.362008
vt 0.715405 0.371197
vt 0.530040 0.371195
vt 0.530038 0.362002
vt 0.766374 0.392999
vt 0.766376 0.402193
vt 0.951742 0.402195
vt 0.951736 0.393006
vt 0.687496 0.219712
vt 0.648920 0.243579
vt 0.648919 0.025604
vt 0.687495 0.001738
vt 0.451157 0.001503
vt 0.442184 0.001497
vt 0.442181 0.186863
vt 0.451159 0.186865
vt 0.741429 0.081863
vt 0.732456 0.081863
vt 0.732456 0.036501
vt 0.741430 0.036501
vt 0.512140 0.049999
vt 0.503161 0.049999
vt 0.503161 0.095361
vt 0.512140 0.095361
vt 0.001496 0.438973
vt 0.001498 0.429995
vt 0.186863 0.429998
vt 0.186857 0.438971
vt 0.645930 0.358740
vt 0.530046 0.358740
vt 0.530046 0.001502
vt 0.645931 0.001833
vt 0.515922 0.358409
vt 0.515922 0.001501
vt 0.527050 0.001501
vt 0.527051 0.358409
vt 0.896955 0.437499
vt 0.997790 0.437499
vt 0.997790 0.864710
vt 0.896955 0.865273
vt 0.527050 0.459243
vt 0.515922 0.459243
vt 0.879858 0.878391
vt 0.452085 0.878391
vt 0.464395 0.889519
vt 0.879858 0.889519
vt 0.400037 0.459243
vt 0.400037 0.358408
vt 0.896955 0.875177
vt 0.539717 0.875176
vt 0.539717 0.865272
vt 0.515922 0.586325
vt 0.400037 0.586325
vt 0.527050 0.586325
vt 0.886953 0.434499
vt 0.886953 0.862271
vt 0.530046 0.862271
vt 0.530045 0.434500
vt 0.442181 0.878391
vt 0.442181 0.889519
vt 0.452085 0.762506
vt 0.442181 0.762506
vt 0.429274 0.132006
vt 0.001501 0.132006
vt 0.001501 0.247892
vt 0.429274 0.247892
vt 0.997790 0.875177
vt 0.011969 0.001498
vt 0.439179 0.001498
vt 0.439179 0.128578
vt 0.011969 0.128578
vt 0.001496 0.586325
vt 0.001496 0.459243
vt 0.428716 0.589495
vt 0.001504 0.589495
vt 0.001505 0.988035
vt 0.428717 0.988034
vt 0.001501 0.128578
vt 0.001501 0.001498
vt 0.439184 0.988034
vt 0.439185 0.589495
vt 0.724136 0.371216
vt 0.724136 0.376383
vt 0.729456 0.376383
vt 0.729456 0.371216
vt 0.724136 0.291000
vt 0.729456 0.291000
vt 0.490970 0.315218
vt 0.485650 0.315218
vt 0.485650 0.320385
vt 0.490970 0.320385
vt 0.373343 0.320385
vt 0.373343 0.315065
vt 0.490970 0.235002
vt 0.485650 0.235002
vt 0.891620 0.376382
vt 0.891620 0.371216
vt 0.748651 0.911163
vt 0.748651 0.905996
vt 0.753971 0.905996
vt 0.753971 0.911163
vt 0.866278 0.905996
vt 0.866278 0.911316
vt 0.748651 0.991378
vt 0.753971 0.991378
vt 0.748374 0.033088
vt 0.743054 0.033088
vt 0.743054 0.029498
vt 0.748374 0.029498
vt 0.950505 0.225810
vt 0.950505 0.113503
vt 0.954095 0.113503
vt 0.954095 0.225810
vt 0.751377 0.033090
vt 0.751377 0.029500
vt 0.756697 0.029500
vt 0.756697 0.033090
vt 0.740885 0.181501
vt 0.744475 0.181501
vt 0.744475 0.261717
vt 0.740885 0.261717
vt 0.994743 0.086885
vt 0.998333 0.086885
vt 0.998333 0.081719
vt 0.994743 0.081719
vt 0.477337 0.006820
vt 0.477337 0.119128
vt 0.480927 0.119128
vt 0.480927 0.006820
vt 0.480927 0.001500
vt 0.477337 0.001500
vt 0.998333 0.001503
vt 0.994743 0.001503
vt 0.991744 0.011669
vt 0.986424 0.011669
vt 0.986424 0.006502
vt 0.991744 0.006502
vt 0.991744 0.091885
vt 0.986423 0.091885
vt 0.824260 0.011669
vt 0.824260 0.006502
vt 0.804393 0.025406
vt 0.804393 0.021499
vt 0.799226 0.021499
vt 0.799226 0.025406
vt 0.790667 0.324995
vt 0.790667 0.328903
vt 0.870883 0.328903
vt 0.870883 0.324995
vt 0.795838 0.298496
vt 0.795838 0.302404
vt 0.790671 0.302404
vt 0.790671 0.298496
vt 0.858131 0.427505
vt 0.858131 0.431413
vt 0.695968 0.431413
vt 0.695968 0.427505
vt 0.890043 0.768985
vt 0.893950 0.768985
vt 0.893950 0.763665
vt 0.890043 0.763665
vt 0.876054 0.298496
vt 0.876054 0.302404
vt 0.893950 0.601501
vt 0.890043 0.601501
vt 0.792318 0.021502
vt 0.796226 0.021502
vt 0.796226 0.026822
vt 0.792318 0.026822
vt 0.190610 0.394623
vt 0.281108 0.453678
vt 0.281108 0.338994
vt 0.882809 0.993187
vt 0.882869 0.878503
vt 0.983677 0.878503
vt 0.983735 0.993187
vt 0.191881 0.251003
vt 0.367475 0.251003
vt 0.276976 0.306631
vt 0.606735 0.189278
vt 0.471371 0.303261
vt 0.370562 0.303261
vt 0.563174 0.131897
vt 0.102550 0.426593
vt 0.102490 0.251001
vt 0.001565 0.251001
vt 0.001508 0.426593
vt 0.105516 0.338994
vt 0.367475 0.365687
vt 0.471513 0.323491
vt 0.370471 0.323491
vt -0.866790 0.157412
vt -1.062693 0.157412
s 0
usemtl Material.001
f 5/1/1 8/2/1 7/3/1 6/4/1
f 1/5/2 2/6/2 3/7/2 4/8/2
f 9/9/3 10/10/3 11/11/3 12/12/3
f 5/13/4 9/14/4 12/15/4 8/16/4
f 7/17/5 11/18/5 10/19/5 6/20/5
f 8/21/6 12/22/6 11/23/6 7/24/6
f 6/25/7 10/26/7 9/27/7 5/28/7
f 13/29/8 16/30/8 15/31/8 14/32/8
f 1/33/9 13/34/9 14/35/9 2/36/9
f 4/37/4 16/38/4 13/39/4 1/40/4
f 2/41/10 14/42/10 15/43/10 3/44/10
f 3/45/11 15/46/11 16/47/11 4/48/11
f 18/49/12 21/50/12 34/51/12 31/52/12
f 17/53/12 30/54/12 32/55/12 26/56/12
f 19/57/13 22/58/13 24/59/13 21/60/13
f 17/53/12 26/56/12 27/61/12 23/62/12
f 30/63/14 31/64/14 33/65/14 32/66/14
f 17/53/12 23/62/12 22/67/12 19/68/12
f 28/69/13 37/70/13 34/71/13 21/60/13
f 23/62/12 39/72/12 38/73/12 22/67/12
f 27/61/12 40/74/12 39/72/12 23/62/12
f 17/75/13 18/76/13 31/77/13 30/78/13
f 33/65/14 31/64/14 35/79/14 36/80/14
f 31/64/15 34/81/15 37/82/15 35/79/15
f 19/83/14 21/84/14 18/85/14 17/86/14
f 28/69/13 21/60/13 24/59/13 29/87/13
f 20/88/13 25/89/13 42/90/13 41/91/13
f 38/73/12 42/92/12 25/93/12 22/67/12
f 24/94/14 22/95/14 25/96/14 20/97/14
f 20/88/13 41/91/13 44/98/13 43/99/13
f 24/94/14 20/97/14 43/100/14 29/101/14
f 49/102/16 45/103/16 48/104/16 50/105/16
f 46/106/16 49/102/16 50/105/16 47/107/16
f 57/108/16 58/109/16 55/110/16 51/111/16
f 53/112/16 55/110/16 58/109/16 56/113/16
f 52/114/16 54/115/16 58/109/16 57/108/16
f 50/105/16 48/104/16 59/116/16 60/117/16
f 61/118/13 62/119/13 64/120/13 63/121/13
f 67/122/13 68/123/13 63/121/13 64/120/13
f 66/124/13 61/118/13 63/121/13 65/125/13
f 53/126/12 56/127/12 68/128/12 67/129/12
f 56/130/17 58/131/17 63/132/17 68/133/17
f 52/134/4 66/135/4 65/136/4 54/137/4
f 54/138/12 65/139/12 63/140/12 58/141/12
f 51/142/18 62/143/18 61/144/18 57/145/18
f 55/146/14 53/147/14 67/148/14 64/149/14
f 55/146/14 64/149/14 62/150/14 51/151/14
f 57/145/18 61/144/18 66/152/18 52/153/18
f 69/154/13 71/155/13 72/156/13 70/157/13
f 74/158/13 73/159/13 71/155/13 69/154/13
f 71/155/13 75/160/13 76/161/13 72/156/13
f 59/162/18 76/163/18 75/164/18 60/165/18
f 50/166/18 71/167/18 73/168/18 47/169/18
f 49/170/12 69/171/12 70/172/12 45/173/12
f 60/174/4 75/175/4 71/176/4 50/177/4
f 45/178/14 70/179/14 72/180/14 48/181/14
f 46/182/12 74/183/12 69/171/12 49/170/12
f 48/181/14 72/180/14 76/184/14 59/185/14
f 47/186/4 73/187/4 74/188/4 46/189/4
f 82/190/19 83/191/19 84/192/19
f 84/193/4 83/194/4 79/195/4 80/196/4
f 77/197/20 80/198/20 78/199/20
f 78/200/21 79/201/21 83/202/21 82/203/21
f 81/204/16 84/205/16 80/206/16 77/207/16
f 81/208/22 82/190/22 84/192/22
f 80/198/23 79/209/23 78/199/23
f 81/210/24 77/211/24 78/212/24 82/213/24
